<mxfile host="app.diagrams.net" agent="Mozilla/5.0 (Windows NT 10.0; Win64; x64) AppleWebKit/537.36 (KHTML, like Gecko) Chrome/135.0.0.0 Safari/537.36" version="26.2.14">
  <diagram name="Page-1" id="929967ad-93f9-6ef4-fab6-5d389245f69c">
    <mxGraphModel dx="1188" dy="626" grid="1" gridSize="10" guides="1" tooltips="1" connect="1" arrows="1" fold="1" page="1" pageScale="1.5" pageWidth="1169" pageHeight="826" background="none" math="0" shadow="0">
      <root>
        <mxCell id="0" style=";html=1;" />
        <mxCell id="1" style=";html=1;" parent="0" />
        <mxCell id="1672d66443f91eb5-1" value="&lt;p style=&quot;margin: 0px ; margin-top: 4px ; margin-left: 10px ; text-align: left&quot;&gt;&lt;b&gt;src&amp;nbsp;&lt;/b&gt;[package]&lt;/p&gt;" style="html=1;strokeWidth=1;shape=mxgraph.sysml.package;html=1;overflow=fill;whiteSpace=wrap;fillColor=none;gradientColor=none;fontSize=12;align=center;labelX=327.64;" parent="1" vertex="1">
          <mxGeometry x="380" y="490" width="1000" height="290" as="geometry" />
        </mxCell>
        <mxCell id="1672d66443f91eb5-13" style="edgeStyle=orthogonalEdgeStyle;rounded=0;html=1;jettySize=auto;orthogonalLoop=1;endArrow=circlePlus;endFill=0;" parent="1" source="1672d66443f91eb5-4" edge="1">
          <mxGeometry relative="1" as="geometry">
            <Array as="points">
              <mxPoint x="477" y="485" />
              <mxPoint x="517" y="485" />
            </Array>
            <mxPoint x="517.0000000000002" y="444.9999999999998" as="targetPoint" />
          </mxGeometry>
        </mxCell>
        <mxCell id="1672d66443f91eb5-15" style="edgeStyle=orthogonalEdgeStyle;rounded=0;html=1;endArrow=circlePlus;endFill=0;jettySize=auto;orthogonalLoop=1;" parent="1" source="1672d66443f91eb5-5" edge="1">
          <mxGeometry relative="1" as="geometry">
            <Array as="points">
              <mxPoint x="717" y="485" />
              <mxPoint x="517" y="485" />
            </Array>
            <mxPoint x="517.0000000000002" y="444.9999999999998" as="targetPoint" />
          </mxGeometry>
        </mxCell>
        <mxCell id="1672d66443f91eb5-21" style="edgeStyle=none;rounded=0;html=1;dashed=1;endArrow=none;endFill=0;jettySize=auto;orthogonalLoop=1;" parent="1" source="1672d66443f91eb5-6" edge="1">
          <mxGeometry relative="1" as="geometry">
            <mxPoint x="1066.583333333333" y="655" as="targetPoint" />
          </mxGeometry>
        </mxCell>
        <mxCell id="1672d66443f91eb5-16" style="edgeStyle=orthogonalEdgeStyle;rounded=0;html=1;endArrow=circlePlus;endFill=0;jettySize=auto;orthogonalLoop=1;entryX=0.25;entryY=1;" parent="1" source="1672d66443f91eb5-7" edge="1">
          <mxGeometry relative="1" as="geometry">
            <Array as="points">
              <mxPoint x="627" y="635" />
              <mxPoint x="677" y="635" />
            </Array>
            <mxPoint x="676.9999999999998" y="605" as="targetPoint" />
          </mxGeometry>
        </mxCell>
        <mxCell id="1672d66443f91eb5-17" style="edgeStyle=orthogonalEdgeStyle;rounded=0;html=1;endArrow=circlePlus;endFill=0;jettySize=auto;orthogonalLoop=1;entryX=0.5;entryY=1;" parent="1" source="1672d66443f91eb5-8" edge="1">
          <mxGeometry relative="1" as="geometry">
            <Array as="points">
              <mxPoint x="817" y="635" />
              <mxPoint x="717" y="635" />
            </Array>
            <mxPoint x="716.9999999999998" y="605" as="targetPoint" />
          </mxGeometry>
        </mxCell>
        <mxCell id="1672d66443f91eb5-18" style="edgeStyle=orthogonalEdgeStyle;rounded=0;html=1;endArrow=circlePlus;endFill=0;jettySize=auto;orthogonalLoop=1;entryX=0.75;entryY=1;" parent="1" source="1672d66443f91eb5-9" edge="1">
          <mxGeometry relative="1" as="geometry">
            <Array as="points">
              <mxPoint x="1017" y="625" />
              <mxPoint x="757" y="625" />
            </Array>
            <mxPoint x="757" y="605" as="targetPoint" />
          </mxGeometry>
        </mxCell>
        <mxCell id="1672d66443f91eb5-22" style="edgeStyle=none;rounded=0;html=1;dashed=1;endArrow=none;endFill=0;jettySize=auto;orthogonalLoop=1;" parent="1" target="1672d66443f91eb5-3" edge="1">
          <mxGeometry relative="1" as="geometry">
            <mxPoint x="1017" y="655" as="sourcePoint" />
          </mxGeometry>
        </mxCell>
        <mxCell id="1672d66443f91eb5-10" value="&lt;p style=&quot;margin: 0px ; margin-top: 4px ; text-align: center&quot;&gt;&lt;b&gt;ReprodutorMusical&lt;/b&gt;&lt;/p&gt;&lt;hr&gt;&lt;p style=&quot;margin: 0px ; margin-left: 8px ; text-align: left&quot;&gt;+tocar()&lt;/p&gt;&lt;p style=&quot;margin: 0px ; margin-left: 8px ; text-align: left&quot;&gt;+pausar()&lt;/p&gt;&lt;p style=&quot;margin: 0px ; margin-left: 8px ; text-align: left&quot;&gt;+selecionarMusica(String musica)&lt;/p&gt;" style="shape=rect;html=1;overflow=fill;whiteSpace=wrap;" parent="1" vertex="1">
          <mxGeometry x="400" y="670" width="290" height="90" as="geometry" />
        </mxCell>
        <mxCell id="1672d66443f91eb5-19" style="rounded=0;html=1;endArrow=none;endFill=0;jettySize=auto;orthogonalLoop=1;dashed=1;" parent="1" source="1672d66443f91eb5-11" edge="1">
          <mxGeometry relative="1" as="geometry">
            <mxPoint x="1000.0303030303025" y="725" as="targetPoint" />
          </mxGeometry>
        </mxCell>
        <mxCell id="1672d66443f91eb5-20" style="edgeStyle=none;rounded=0;html=1;dashed=1;endArrow=none;endFill=0;jettySize=auto;orthogonalLoop=1;" parent="1" target="1672d66443f91eb5-6" edge="1">
          <mxGeometry relative="1" as="geometry">
            <mxPoint x="1187" y="825.0000000000002" as="sourcePoint" />
          </mxGeometry>
        </mxCell>
        <mxCell id="1672d66443f91eb5-23" value="Title" style="text;strokeColor=none;fillColor=none;html=1;fontSize=24;fontStyle=1;verticalAlign=middle;align=center;" parent="1" vertex="1">
          <mxGeometry x="120" y="40" width="1510" height="40" as="geometry" />
        </mxCell>
        <mxCell id="cxfwBUMPioykMOd7Jfnf-1" value="&lt;p style=&quot;margin: 0px ; margin-top: 4px ; text-align: center&quot;&gt;&lt;b&gt;AparelhoTelefonico&lt;/b&gt;&lt;/p&gt;&lt;hr&gt;&lt;p style=&quot;margin: 0px 0px 0px 8px; text-align: left;&quot;&gt;+atender()&lt;/p&gt;&lt;p style=&quot;margin: 0px 0px 0px 8px; text-align: left;&quot;&gt;+iniciarCorreioVoz()&lt;/p&gt;&lt;p style=&quot;margin: 0px 0px 0px 8px; text-align: left;&quot;&gt;+ligar(String numero)&lt;/p&gt;" style="shape=rect;html=1;overflow=fill;whiteSpace=wrap;" vertex="1" parent="1">
          <mxGeometry x="730" y="670" width="290" height="90" as="geometry" />
        </mxCell>
        <mxCell id="cxfwBUMPioykMOd7Jfnf-3" value="&lt;p style=&quot;margin: 0px ; margin-top: 4px ; text-align: center&quot;&gt;&lt;b&gt;NavegadorInternet&lt;/b&gt;&lt;/p&gt;&lt;hr&gt;&lt;p style=&quot;margin: 0px 0px 0px 8px; text-align: left;&quot;&gt;+adicionarNovaAba()&lt;/p&gt;&lt;p style=&quot;margin: 0px 0px 0px 8px; text-align: left;&quot;&gt;+atualizarPagina()&lt;/p&gt;&lt;p style=&quot;margin: 0px 0px 0px 8px; text-align: left;&quot;&gt;+exibirPagina(String url)&lt;/p&gt;" style="shape=rect;html=1;overflow=fill;whiteSpace=wrap;" vertex="1" parent="1">
          <mxGeometry x="1060" y="670" width="290" height="90" as="geometry" />
        </mxCell>
        <mxCell id="cxfwBUMPioykMOd7Jfnf-5" style="edgeStyle=orthogonalEdgeStyle;rounded=0;orthogonalLoop=1;jettySize=auto;html=1;entryX=0.5;entryY=0;entryDx=0;entryDy=0;" edge="1" parent="1" source="cxfwBUMPioykMOd7Jfnf-4" target="cxfwBUMPioykMOd7Jfnf-1">
          <mxGeometry relative="1" as="geometry" />
        </mxCell>
        <mxCell id="cxfwBUMPioykMOd7Jfnf-6" style="edgeStyle=orthogonalEdgeStyle;rounded=0;orthogonalLoop=1;jettySize=auto;html=1;entryX=0.5;entryY=0;entryDx=0;entryDy=0;exitX=0.5;exitY=1;exitDx=0;exitDy=0;" edge="1" parent="1" source="cxfwBUMPioykMOd7Jfnf-4" target="1672d66443f91eb5-10">
          <mxGeometry relative="1" as="geometry" />
        </mxCell>
        <mxCell id="cxfwBUMPioykMOd7Jfnf-7" style="edgeStyle=orthogonalEdgeStyle;rounded=0;orthogonalLoop=1;jettySize=auto;html=1;entryX=0.5;entryY=0;entryDx=0;entryDy=0;exitX=0.5;exitY=1;exitDx=0;exitDy=0;" edge="1" parent="1" source="cxfwBUMPioykMOd7Jfnf-4" target="cxfwBUMPioykMOd7Jfnf-3">
          <mxGeometry relative="1" as="geometry" />
        </mxCell>
        <mxCell id="cxfwBUMPioykMOd7Jfnf-4" value="&lt;p style=&quot;margin: 0px ; margin-top: 4px ; text-align: center&quot;&gt;&lt;b&gt;Iphone&lt;/b&gt;&lt;/p&gt;&lt;hr&gt;&lt;p style=&quot;margin: 0px ; margin-left: 8px ; text-align: left&quot;&gt;&lt;br&gt;&lt;/p&gt;" style="shape=rect;html=1;overflow=fill;whiteSpace=wrap;" vertex="1" parent="1">
          <mxGeometry x="820" y="520" width="110" height="40" as="geometry" />
        </mxCell>
      </root>
    </mxGraphModel>
  </diagram>
</mxfile>
